<?xml version="1.0" encoding="UTF-8" standalone="no"?>
<!-- Created with Inkscape (http://www.inkscape.org/) -->

<svg
   inkscape:version="1.2.2 (732a01da63, 2022-12-09)"
   sodipodi:docname="schéma_cinématique_solution3.svg"
   id="svg5"
   version="1.1"
   viewBox="0 0 420 297"
   height="297mm"
   width="420mm"
   xml:space="preserve"
   xmlns:inkscape="http://www.inkscape.org/namespaces/inkscape"
   xmlns:sodipodi="http://sodipodi.sourceforge.net/DTD/sodipodi-0.dtd"
   xmlns="http://www.w3.org/2000/svg"
   xmlns:svg="http://www.w3.org/2000/svg"><sodipodi:namedview
     id="namedview7"
     pagecolor="#ffffff"
     bordercolor="#000000"
     borderopacity="0.25"
     inkscape:showpageshadow="2"
     inkscape:pageopacity="0.0"
     inkscape:pagecheckerboard="0"
     inkscape:deskcolor="#d1d1d1"
     inkscape:document-units="mm"
     showgrid="true"
     inkscape:zoom="0.70710678"
     inkscape:cx="866.20581"
     inkscape:cy="515.48084"
     inkscape:window-width="1920"
     inkscape:window-height="1001"
     inkscape:window-x="-9"
     inkscape:window-y="-9"
     inkscape:window-maximized="1"
     inkscape:current-layer="g25888"><inkscape:grid
       type="axonomgrid"
       id="grid1049" /></sodipodi:namedview><defs
     id="defs2"><inkscape:perspective
       sodipodi:type="inkscape:persp3d"
       inkscape:vp_x="0 : 148.5 : 1"
       inkscape:vp_y="0 : 1000 : 0"
       inkscape:vp_z="420 : 148.5 : 1"
       inkscape:persp3d-origin="210 : 99 : 1"
       id="perspective15697" /></defs><g
     inkscape:label="Calque 1"
     inkscape:groupmode="layer"
     id="layer1" /><g
     credits="Auteur : Raphaël ALLAIS - Éduscol-STI"
     id="g1800"
     transform="matrix(-0.28398553,-0.00115848,0.0012009,-0.2943823,120.24092,106.05481)"><g
       id="g1786" /><path
       d="m -4.4997885,252.23499 1.4738327,-854.94373"
       stroke="#ff0000"
       stroke-width="1"
       style="stroke:#55ff00;stroke-width:3.45854;stroke-linecap:round;stroke-dasharray:none;stroke-opacity:1"
       profondeur="577350269189.6259"
       id="path1798"
       sodipodi:nodetypes="cc" /></g><g
     credits="Auteur : Raphaël ALLAIS - Éduscol-STI"
     id="g1979"
     transform="matrix(0.24547345,0,0,0.22828941,281.85811,196.63051)"><path
       d="m 26.5165,-102.0621 -141.4214,81.6497 V 51.031 L 26.5165,-30.6186 Z"
       stroke="#ff0000"
       stroke-width="1"
       style="fill:#ffffff;stroke-linecap:round;stroke-linejoin:round;stroke-width:4.22430098;stroke-dasharray:none"
       profondeur="-36084.39182435162"
       id="path1959" /><path
       d="M 114.9049,20.4124 -26.5165,102.0621 -114.9049,51.031 26.5165,-30.6186 Z"
       stroke="#ff0000"
       stroke-width="1"
       style="fill:#ffffff;stroke-linecap:round;stroke-linejoin:round;stroke-width:4.22430098;stroke-dasharray:none"
       profondeur="-25259.074277046122"
       id="path1961" /><path
       d="M 107.8338,8.165 33.5876,-89.8146"
       stroke="#0000ff"
       stroke-width="1"
       style="fill:#ffffff;stroke-linecap:round;stroke-linejoin:round"
       profondeur="-57.73502691896258"
       id="path1963" /><path
       d="m 33.5876,-34.7011 74.2462,-12.2475"
       stroke="#0000ff"
       stroke-width="1"
       style="fill:#ffffff;stroke-linecap:round;stroke-linejoin:round"
       profondeur="-57.73502691896258"
       id="path1965" /><path
       d="M 141.4214,-81.6497 -305.87374,176.191 -659.00936,379.75399 -141.4214,81.6497"
       stroke="#0000ff"
       stroke-width="1"
       style="stroke:#55ff00;stroke-width:4.2243;stroke-linecap:round;stroke-dasharray:none;stroke-opacity:1"
       profondeur="0.0"
       id="path1967"
       sodipodi:nodetypes="cccc" /><path
       d="M -107.8338,46.9486 -33.5876,34.7011"
       stroke="#0000ff"
       stroke-width="1"
       style="fill:#ffffff;stroke-linecap:round;stroke-linejoin:round;stroke:#55ff00;stroke-opacity:1;stroke-width:4.22430098;stroke-dasharray:none"
       profondeur="57.73502691896258"
       id="path1969" /><path
       d="M -33.5876,89.8146 -107.8338,-8.165"
       stroke="#0000ff"
       stroke-width="1"
       style="fill:#ffffff;stroke-linecap:round;stroke-linejoin:round;stroke-width:4.22430098;stroke-dasharray:none;stroke:#55ff00;stroke-opacity:1"
       profondeur="57.73502691896258"
       id="path1971" /><path
       d="m 114.9049,-51.031 -141.4214,81.6496 -88.3884,-51.031 141.4214,-81.6497 z"
       stroke="#ff0000"
       stroke-width="1"
       style="fill:#ffffff;stroke-linecap:round;stroke-linejoin:round;stroke-width:4.22430098;stroke-dasharray:none"
       profondeur="25259.074277046126"
       id="path1973" /><path
       d="M 114.9049,-51.031 -26.5165,30.6186 v 71.4435 L 114.9049,20.4124 Z"
       stroke="#ff0000"
       stroke-width="1"
       style="fill:#ffffff;stroke-linecap:round;stroke-linejoin:round;stroke-width:4.22430098;stroke-dasharray:none"
       profondeur="36084.39182435162"
       id="path1975" /><path
       d="M 0,-35.7217 0.7621544,-370.7903"
       stroke="#ff0000"
       stroke-width="1"
       style="stroke-width:4.2243;stroke-linecap:round;stroke-dasharray:none"
       profondeur="55930807.32052811"
       id="path1977"
       sodipodi:nodetypes="cc" /></g><g
     credits="Auteur : Raphaël ALLAIS - Éduscol-STI"
     id="g4530"
     transform="matrix(0.24745847,0,0,0.25774647,282.50389,108.93138)"
     style="stroke-width:3.95961;stroke-dasharray:none"><path
       style="fill:#000000;stroke:#55ff00;stroke-width:3.95961;stroke-dasharray:none;stroke-opacity:1"
       d="m -657.75536,429.78246 -95.26112,52.26214"
       id="path7445" /><path
       style="fill:#000000;stroke:#55ff00;stroke-width:3.95961;stroke-dasharray:none;stroke-opacity:1"
       d="m -795.35476,442.84799 87.70071,75.48977"
       id="path7447" /><path
       style="fill:#000000;stroke:#55ff00;stroke-width:3.95961;stroke-dasharray:none;stroke-opacity:1"
       d="m -793.84268,444.29972 -66.53159,43.55178"
       id="path7455" /><path
       style="fill:#000000;stroke:#55ff00;stroke-width:3.95961;stroke-dasharray:none;stroke-opacity:1"
       d="m -760.57689,477.68943 -75.60407,45.00351"
       id="path7457" /><path
       style="fill:#000000;stroke:#55ff00;stroke-width:3.95961;stroke-dasharray:none;stroke-opacity:1"
       d="m -712.19029,518.33776 -80.14031,49.35869"
       id="path7459" /></g><g
     credits="Auteur : Raphaël ALLAIS - Éduscol-STI"
     id="g3611"
     transform="matrix(0.25796983,0,0,0.28166384,141.97096,26.323305)"
     style="stroke-width:3.7098;stroke-dasharray:none"><g
       id="g3597"
       style="stroke-width:3.7098;stroke-dasharray:none" /><path
       d="m -141.4214,-40.8248 70.7107,-40.8249"
       stroke="#0000ff"
       stroke-width="1"
       style="stroke-width:3.7098;stroke-linecap:round;stroke-dasharray:none"
       profondeur="-86.60254037844388"
       id="path3599" /><path
       d="m -45.726,-84.1349 0.7883,0.4835 1.4688,1.0758 1.3613,1.2405 1.2484,1.4005 1.1306,1.5547 1.0084,1.703 0.8821,1.8445 0.7523,1.9786 0.6197,2.1051 0.4845,2.2232 0.3475,2.3325 0.209,2.4326 0.0698,2.5232 -0.0698,2.6036 -0.209,2.674 -0.3475,2.7337 -0.4845,2.7827 -0.6197,2.8206 -0.7523,2.8474 -0.8821,2.863 -1.0084,2.8673 -1.1306,2.8603 -1.2484,2.842 -1.3613,2.8125 -1.4688,2.7718 -1.5706,2.7202 -1.666,2.658 -1.755,2.5851 -1.837,2.5022 -1.9118,2.4093 -1.979,2.3069 -2.0384,2.1954 -2.0898,2.0753 -2.1329,1.947 -2.1675,1.8109 -2.1938,1.6677 -2.2112,1.518 -2.22,1.3623 -2.22,1.2011 -2.2112,1.0353 -2.1937,0.8654 -2.1676,0.692 -2.1329,0.5159 -2.0897,0.3377 -2.0384,0.1584 -1.979,-0.0218 -1.9118,-0.2018 -1.837,-0.3809 -1.755,-0.5587 -1.6661,-0.7342 -0.7822,-0.4231 141.4213,81.6496 0.7823,0.4232 1.666,0.7342 1.755,0.5586 1.837,0.381 1.9118,0.2018 1.979,0.0217 2.0384,-0.1583 2.0898,-0.3378 2.1329,-0.5159 2.1675,-0.692 2.1938,-0.8653 2.2112,-1.0353 2.22,-1.2011 2.22,-1.3623 2.2112,-1.518 2.1937,-1.6678 2.1676,-1.8109 2.1329,-1.9469 2.0897,-2.0753 2.0384,-2.1954 1.979,-2.307 1.9118,-2.4092 1.837,-2.5022 1.755,-2.5852 1.6661,-2.6579 1.5705,-2.7203 1.4688,-2.7718 1.3613,-2.8124 1.2485,-2.842 1.1306,-2.8603 1.0083,-2.8673 0.8821,-2.863 0.7524,-2.8475 0.6197,-2.8206 0.4845,-2.7826 0.3474,-2.7337 0.2091,-2.674 0.0697,-2.6037 -0.0697,-2.5231 -0.2091,-2.4326 -0.3474,-2.3325 -0.4845,-2.2232 -0.6197,-2.1051 -0.7524,-1.9787 -0.8821,-1.8444 -1.0083,-1.703 -1.1306,-1.5548 -1.2485,-1.4004 -1.3613,-1.2405 -1.4688,-1.0758 -0.7883,-0.4836 z"
       stroke="#ff0000"
       stroke-width="1"
       style="fill:#ffffff;stroke:#55ff00;stroke-width:3.7098;stroke-dasharray:none;stroke-opacity:1"
       profondeur="-11.428149057870101"
       id="path3601" /><path
       d="M -141.4214,-81.6497 541.75095,273.61124"
       stroke="#0000ff"
       stroke-width="1"
       style="stroke-width:3.7098;stroke-linecap:round;stroke-dasharray:none"
       profondeur="0.0"
       id="path3603"
       sodipodi:nodetypes="cc" /><path
       d="M 58.9256,74.8455 129.6362,34.0207"
       stroke="#0000ff"
       stroke-width="1"
       style="stroke-width:3.7098;stroke-linecap:round;stroke-dasharray:none"
       profondeur="0.0"
       id="path3605" /><path
       d="m -95.6953,2.4853 -0.7883,-0.4836 -1.4688,-1.0758 -1.3613,-1.2405 -1.2485,-1.4004 -1.1306,-1.5548 -1.0083,-1.703 -0.8821,-1.8444 -0.7524,-1.9787 -0.6197,-2.1051 -0.4845,-2.2232 -0.3474,-2.3325 -0.2091,-2.4326 -0.0697,-2.5231 v 0 l 0.0697,-2.6037 0.2091,-2.674 0.3474,-2.7337 0.4845,-2.7826 0.6197,-2.8206 0.7524,-2.8475 0.8821,-2.863 1.0083,-2.8673 1.1306,-2.8603 1.2485,-2.842 1.3613,-2.8124 1.4688,-2.7718 1.5705,-2.7203 1.6661,-2.6579 1.755,-2.5852 1.837,-2.5022 1.9118,-2.4092 1.979,-2.307 2.0384,-2.1954 2.0897,-2.0753 2.1329,-1.9469 2.1676,-1.8109 2.1937,-1.6678 2.2112,-1.518 2.22,-1.3623 2.22,-1.2011 2.2112,-1.0353 2.1938,-0.8653 2.1675,-0.692 2.1329,-0.5159 2.0898,-0.3378 2.0384,-0.1583 1.979,0.0217 1.9118,0.2018 1.837,0.381 1.755,0.5586 1.666,0.7342 0.7823,0.4232 141.4213,81.6496 -0.7822,-0.4231 -1.6661,-0.7342 -1.755,-0.5587 -1.837,-0.3809 -1.9118,-0.2018 -1.979,-0.0218 -2.0384,0.1584 -2.0897,0.3377 -2.1329,0.5159 -2.1676,0.692 -2.1937,0.8654 -2.2112,1.0353 -2.22,1.2011 -2.22,1.3623 -2.2112,1.518 -2.1938,1.6677 -2.1675,1.8109 -2.1329,1.947 -2.0898,2.0753 -2.0384,2.1954 -1.979,2.3069 -1.9118,2.4093 -1.837,2.5022 -1.755,2.5851 -1.666,2.658 -1.5706,2.7202 -1.4688,2.7718 -1.3613,2.8125 -1.2484,2.842 -1.1306,2.8603 -1.0084,2.8673 -0.8821,2.863 -0.7523,2.8474 -0.6197,2.8206 -0.4845,2.7827 -0.3475,2.7337 -0.209,2.674 -0.0698,2.6036 v 0 l 0.0698,2.5232 0.209,2.4326 0.3475,2.3325 0.4845,2.2232 0.6197,2.1051 0.7523,1.9786 0.8821,1.8445 1.0084,1.703 1.1306,1.5547 1.2484,1.4005 1.3613,1.2405 1.4688,1.0758 0.7883,0.4835 z"
       stroke="#ff0000"
       stroke-width="1"
       style="fill:#ffffff;stroke:#55ff00;stroke-width:3.7098;stroke-dasharray:none;stroke-opacity:1"
       profondeur="11.428149057870122"
       id="path3607" /></g><g
     credits="Auteur : Raphaël ALLAIS - Éduscol-STI"
     id="g25888"
     transform="matrix(0.29577462,0,0,0.27244694,281.78125,125.37807)"
     style="stroke-width:3.52272369;stroke-dasharray:none"><path
       d="M 0,0 V 81.6497"
       stroke="#ff0000"
       stroke-width="1"
       style="stroke-linecap:round;stroke-width:3.52272369;stroke-dasharray:none"
       profondeur="-28.86751345948129"
       id="path25880" /><path
       d="M -106.066,0 0,61.2372 106.066,0 0,-61.2372 Z"
       stroke="#ff0000"
       stroke-width="1"
       style="fill:#ffffff;stroke-width:3.52272369;stroke-dasharray:none"
       profondeur="0.0"
       id="path25882" /><circle
       cx="0"
       cy="-30.618622"
       r="37.5"
       style="fill:#ffffff;stroke-width:3.52272369;stroke-dasharray:none"
       stroke="#0000ff"
       stroke-width="1"
       profondeur="5.773502691896258"
       id="circle25884" /><path
       d="m -0.94320385,-80.715604 0.0973202,19.478404"
       stroke="#0000ff"
       stroke-width="1"
       style="stroke-width:3.52272;stroke-linecap:round;stroke-dasharray:none"
       profondeur="64.9519052838329"
       id="path25886"
       sodipodi:nodetypes="cc" /></g></svg>
