<?xml version="1.0" encoding="UTF-8" standalone="no"?>
<!-- Created with Inkscape (http://www.inkscape.org/) -->

<svg
   width="420mm"
   height="297mm"
   viewBox="0 0 420 297"
   version="1.1"
   id="svg5"
   sodipodi:docname="dessin cinematique 1.svg"
   inkscape:version="1.2.2 (732a01da63, 2022-12-09)"
   xmlns:inkscape="http://www.inkscape.org/namespaces/inkscape"
   xmlns:sodipodi="http://sodipodi.sourceforge.net/DTD/sodipodi-0.dtd"
   xmlns="http://www.w3.org/2000/svg"
   xmlns:svg="http://www.w3.org/2000/svg">
  <sodipodi:namedview
     id="namedview7"
     pagecolor="#ffffff"
     bordercolor="#000000"
     borderopacity="0.25"
     inkscape:showpageshadow="2"
     inkscape:pageopacity="0.0"
     inkscape:pagecheckerboard="0"
     inkscape:deskcolor="#d1d1d1"
     inkscape:document-units="mm"
     showgrid="true"
     inkscape:zoom="1.4503086"
     inkscape:cx="713.29645"
     inkscape:cy="807.06959"
     inkscape:window-width="1920"
     inkscape:window-height="1001"
     inkscape:window-x="-9"
     inkscape:window-y="-9"
     inkscape:window-maximized="1"
     inkscape:current-layer="g8667">
    <inkscape:grid
       type="axonomgrid"
       id="grid4803"
       originx="0"
       originy="0" />
  </sodipodi:namedview>
  <defs
     id="defs2">
    <rect
       x="907.39306"
       y="981.17046"
       width="8.2741009"
       height="13.10066"
       id="rect13360" />
  </defs>
  <g
     inkscape:label="Calque 1"
     inkscape:groupmode="layer"
     id="layer1" />
  <g
     credits="Auteur : Raphaël ALLAIS - Éduscol-STI"
     id="g8667"
     transform="matrix(0.1385931,0,0,0.08892608,188.38832,227.02628)">
    <g
       id="g8653" />
    <path
       d="m 31.183076,105.05996 -66.089258,56.58858"
       stroke="#0000ff"
       stroke-width="1"
       style="stroke:#003fff;stroke-width:9.00771468;stroke-linecap:round;stroke-dasharray:none;stroke-opacity:1"
       profondeur="-86.60254037844388"
       id="path8655" />
    <path
       d="m -36.139248,78.832573 0.0179,-0.925138 0.14308,-1.811148 0.28567,-1.800441 0.42708,-1.782629 0.56676,-1.757712 0.70433,-1.725989 0.83901,-1.687263 0.9704,-1.642032 1.09797,-1.590296 1.22124,-1.532256 1.33959,-1.468112 1.45278,-1.398364 1.56023,-1.322912 1.66139,-1.242256 1.75608,-1.156797 1.84387,-1.066635 1.92434,-0.972371 1.99726,-0.874302 2.06221,-0.772633 2.11909,-0.66806 2.1675604,-0.560787 2.20754,-0.451311 2.23881,-0.340034 2.26116,-0.227457 2.27465996,-0.113979 H 1.2798424 l 2.27466,0.113979 2.261156,0.227457 2.238812,0.340034 2.2075386,0.451311 2.16756,0.560787 2.11909,0.66806 2.062203,0.772633 1.997263,0.874302 1.924341,0.972371 1.843873,1.066635 1.756076,1.156797 1.661387,1.242256 v 0 l 1.560239,1.322912 1.452779,1.398364 1.339587,1.468112 1.221243,1.532256 1.097965,1.590296 0.970406,1.642032 0.839001,1.687263 0.704332,1.725989 0.566759,1.757712 0.427083,1.782629 0.285666,1.800441 0.143086,1.811148 0.01792,0.889613 V -84.614884 l -0.01792,-0.88961 -0.143086,-1.81115 -0.285666,-1.80044 -0.427083,-1.78263 -0.566759,-1.75771 -0.704332,-1.72599 -0.839001,-1.68726 -0.970406,-1.64204 -1.097965,-1.59029 -1.221243,-1.532256 -1.339587,-1.46821 -1.452779,-1.39826 -1.560239,-1.32291 v 0 l -1.661387,-1.24226 -1.756076,-1.15681 -1.843873,-1.06663 -1.924341,-0.97237 -1.997263,-0.8743 -2.062203,-0.77274 -2.11909,-0.66796 -2.16756,-0.56078 -2.2075386,-0.45132 -2.238812,-0.34013 -2.261156,-0.22746 -2.27466,-0.11387 h -2.27908004 l -2.27465996,0.11387 -2.26116,0.22746 -2.23881,0.34013 -2.20754,0.45132 -2.1675604,0.56078 -2.11909,0.66796 -2.06221,0.77274 -1.99726,0.8743 -1.92434,0.97237 -1.84387,1.06663 -1.75608,1.15681 -1.66139,1.24226 -1.56023,1.32291 -1.45278,1.39826 -1.33959,1.46821 -1.22124,1.532256 -1.09797,1.59029 -0.9704,1.64204 -0.83901,1.68726 -0.70433,1.72599 -0.56676,1.75771 -0.42708,1.78263 -0.28567,1.80044 -0.14308,1.81115 -0.0179,0.92513 z"
       stroke="#ff0000"
       stroke-width="0.85211"
       style="fill:#ffffff;stroke-width:9.00771;stroke-dasharray:none"
       profondeur="-11.428149057870103"
       id="path8657" />
    <path
       d="M -1.1759952,202.5949 1.4566385,-264.49209"
       stroke="#0000ff"
       stroke-width="1"
       style="stroke:#0400ff;stroke-width:10.0872;stroke-linecap:round;stroke-dasharray:none;stroke-opacity:1"
       profondeur="0.0"
       id="path8659"
       sodipodi:nodetypes="cc" />
    <path
       d="m 31.759849,-167.88544 -67.46062,52.51104"
       stroke="#0000ff"
       stroke-width="1"
       style="stroke-width:9.00771;stroke-linecap:round;stroke-dasharray:none"
       profondeur="0.0"
       id="path8661" />
    <path
       d="m 36.436918,81.046215 -0.01775,0.925153 -0.142773,1.811269 -0.285378,1.800684 -0.42682,1.782992 -0.566523,1.758195 -0.704122,1.72659 -0.838821,1.687977 -0.970254,1.64286 -1.097843,1.591233 -1.22115,1.533303 -1.339525,1.46935 -1.452747,1.399499 -1.560238,1.32425 -1.661417,1.24367 -1.756135,1.1583 -1.843964,1.0682 -1.924462,0.97402 -1.997413,0.87601 -2.062382,0.77449 -2.119298,0.66977 -2.167794,0.56264 -2.2078,0.45319 -2.239099,0.34205 -2.261472,0.22939 -2.2749919,0.11582 -2.27944006,0.002 -2.27503004,-0.11193 -2.26156,-0.22554 -2.23922,-0.33822 -2.2079699,-0.44942 -2.1680001,-0.55893 -2.11954,-0.66615 -2.06267,-0.77097 -1.99774,-0.8726 -1.92482,-0.97073 -1.84436,-1.06507 -1.75656,-1.15529 -1.66188,-1.24084 -1.56072,-1.32158 -1.45327,-1.397019 -1.34007,-1.46707 -1.22171,-1.531211 -1.09843,-1.589358 -0.97086,-1.641202 -0.83945,-1.686546 -0.70476,-1.725387 -0.56717,-1.757227 -0.42748,-1.782262 -0.28604,-1.800197 -0.14345,-1.811024 -0.0181,-0.889598 -0.0302,-163.411837 0.0181,0.889598 0.14345,1.811024 0.28604,1.800196 0.42748,1.782264 0.57033,2.044576 0.7016,1.438037 0.83944,1.686546 0.97087,1.641202 1.09843,1.589358 1.22171,1.531213 1.34007,1.466967 1.45326,1.397123 1.56073,1.321579 1.66188,1.240837 1.75656,1.155297 1.84436,1.06506 1.92482,0.970727 1.99774,0.872597 2.06267,0.770872 2.11954,0.666251 2.1680001,0.558935 2.2079699,0.449426 2.23922,0.338123 2.26156,0.225526 2.27503,0.112037 2.2794401,-0.0019 2.2749919,-0.11592 2.261472,-0.229387 2.239099,-0.341946 2.2078,-0.453195 2.167794,-0.562638 2.119297,-0.669869 2.062383,-0.774392 1.997413,-0.876008 1.924462,-0.974012 1.843964,-1.068209 1.756135,-1.158296 1.661416,-1.243674 1.560239,-1.324243 1.452747,-1.399604 1.339525,-1.469255 1.22115,-1.533297 1.097842,-1.591233 0.970255,-1.642859 0.83882,-1.687979 0.704122,-1.726589 0.566524,-1.758195 0.42682,-1.782992 0.285377,-1.800684 0.142775,-1.81127 0.01775,-0.925152 z"
       stroke="#ff0000"
       stroke-width="0.852177"
       style="fill:#ffffff;stroke-width:9.00771;stroke-dasharray:none"
       profondeur="11.42814905787013"
       id="path8663"
       sodipodi:nodetypes="ccccccccccccccccccccccccccccccccccccccccccccccccccccccccccccccccccccccccccccccccccccccccccccccccccccccccc" />
  </g>
  <g
     credits="Auteur : Raphaël ALLAIS - Éduscol-STI"
     id="g10237"
     transform="matrix(0.15089294,0,0,0.10764906,279.90759,223.56746)">
    <g
       id="g10223" />
    <path
       d="M 33.987644,98.424397 -33.987644,146.5246"
       stroke="#0000ff"
       stroke-width="1"
       style="stroke:#00ff08;stroke-width:6.17739;stroke-linecap:round;stroke-dasharray:none;stroke-opacity:1"
       profondeur="-86.60254037844388"
       id="path10225" />
    <path
       d="m -30.435688,54.657184 0.01577,-0.727073 0.125872,-1.423396 0.251299,-1.414981 0.375702,-1.400983 0.498575,-1.381399 0.619596,-1.356469 0.738065,-1.326034 0.85366,-1.290486 0.965873,-1.249826 1.07432,-1.204213 1.178427,-1.153801 1.278001,-1.098985 1.372534,-1.039687 1.461512,-0.976299 1.54481,-0.909136 1.62204,-0.838278 1.692831,-0.764193 1.756981,-0.687122 1.814108,-0.607218 1.8641505,-0.525034 1.9067891,-0.440726 1.9419589,-0.354689 1.96947,-0.267236 1.98913,-0.17876 2.00100198,-0.08958 H 2.4816845 l 2.001002,0.08958 1.989129,0.17876 1.9694704,0.267236 1.9419601,0.354689 1.906789,0.440726 1.86415,0.525034 1.814109,0.607218 1.75698,0.687122 1.692831,0.764193 1.622045,0.838278 1.54481,0.909136 1.461512,0.976299 v 0 l 1.372533,1.039687 1.278001,1.098985 1.178427,1.153801 1.07432,1.204213 0.965873,1.249826 0.853661,1.290486 0.738064,1.326034 0.619597,1.356469 0.498575,1.381399 0.375702,1.400983 0.251298,1.414981 0.125873,1.423396 0.01577,0.699154 v -128.42675 l -0.01577,-0.699154 -0.125873,-1.423396 -0.251298,-1.414981 -0.375702,-1.400982 -0.498575,-1.3814 -0.619597,-1.356469 -0.738064,-1.326033 -0.853661,-1.290486 -0.965873,-1.249827 -1.07432,-1.204212 -1.178427,-1.15388 -1.278001,-1.098907 -1.372533,-1.039687 v 0 l -1.461512,-0.976299 -1.54481,-0.909136 -1.622045,-0.838277 -1.692831,-0.764194 -1.75698,-0.687121 -1.814109,-0.607297 -1.86415,-0.524955 -1.906789,-0.440727 -1.9419601,-0.354689 -1.9694704,-0.267314 -1.989129,-0.17876 -2.001002,-0.0895 H 0.47678848 l -2.00100198,0.0895 -1.98913,0.17876 -1.96947,0.267314 -1.9419589,0.354689 -1.9067891,0.440727 -1.8641505,0.524955 -1.814108,0.607297 -1.756981,0.687121 -1.692831,0.764194 -1.622044,0.838277 -1.54481,0.909136 -1.461512,0.976299 -1.372534,1.039687 -1.278001,1.098907 -1.178427,1.15388 -1.07432,1.204212 -0.965873,1.249827 -0.85366,1.290486 -0.738065,1.326033 -0.619596,1.356469 -0.498575,1.3814 -0.375702,1.400982 -0.251299,1.414981 -0.125872,1.423396 -0.01577,0.727073 z"
       stroke="#ff0000"
       stroke-width="0.708512"
       style="fill:#ffffff;stroke-width:6.17739;stroke-dasharray:none"
       profondeur="-11.428149057870103"
       id="path10227" />
    <path
       d="M 0,163.2993 -1.3946374,-204.27863"
       stroke="#0000ff"
       stroke-width="1"
       style="stroke:#00ff0e;stroke-width:6.17739;stroke-linecap:round;stroke-dasharray:none;stroke-opacity:1"
       profondeur="0.0"
       id="path10229"
       sodipodi:nodetypes="cc" />
    <path
       d="m 30.240782,-149.17555 -68.370824,47.13444"
       stroke="#0000ff"
       stroke-width="1"
       style="stroke:#00ff14;stroke-width:6.17739;stroke-linecap:round;stroke-dasharray:none;stroke-opacity:1"
       profondeur="0.0"
       id="path10231" />
    <path
       d="m 35.35278,65.181038 -0.016,0.795184 -0.127763,1.556738 -0.255073,1.547534 -0.381346,1.532223 -0.506063,1.510807 -0.628903,1.483541 -0.749151,1.450254 -0.866483,1.411376 -0.980381,1.366908 -1.090458,1.317021 -1.196127,1.261971 -1.297198,1.20185 -1.393149,1.13709 -1.483465,1.06775 -1.568014,0.99431 -1.646408,0.9168 -1.718259,0.83578 -1.783372,0.75149 -1.841357,0.66419 -1.892151,0.57413 -1.93543,0.48202 -1.971129,0.38791 -1.9990534,0.29236 -2.019008,0.1955 -2.031058,0.0979 h -2.03501 l -2.03105797,-0.0979 -2.01900803,-0.1955 -1.999053,-0.29236 -1.9711284,-0.38791 -1.9354303,-0.48202 -1.8921514,-0.57413 -1.8413575,-0.66419 -1.783371,-0.75149 -1.718259,-0.83578 -1.646408,-0.9168 -1.568014,-0.99431 -1.483465,-1.06775 -1.39315,-1.13709 -1.297197,-1.20185 -1.196128,-1.261971 -1.090456,-1.317021 -0.980382,-1.366908 -0.866483,-1.411376 -0.74915,-1.450254 -0.628903,-1.483541 -0.506064,-1.510807 -0.381346,-1.532223 -0.255073,-1.547534 -0.127763,-1.556738 -0.016,-0.764649 V -75.24597 l 0.016,0.76465 0.127763,1.556737 0.255073,1.547534 0.381346,1.532224 0.506064,1.510806 0.628903,1.483541 0.74915,1.450254 0.866483,1.411376 0.980382,1.366909 1.090456,1.31702 1.196128,1.261887 1.297197,1.201937 1.39315,1.137083 1.483465,1.067757 1.568014,0.994303 1.646408,0.916805 1.718259,0.835782 1.783371,0.75149 1.8413575,0.664101 1.8921514,0.574218 1.9354303,0.482013 1.9711284,0.387916 1.999053,0.29227 2.01900803,0.195506 2.03105797,0.09797 h 2.03501 l 2.031058,-0.09797 2.019008,-0.195506 1.9990534,-0.29227 1.971129,-0.387916 1.93543,-0.482013 1.892151,-0.574218 1.841357,-0.664101 1.783372,-0.75149 1.718259,-0.835782 1.646408,-0.916805 1.568014,-0.994303 1.483465,-1.067757 1.393149,-1.137083 1.297198,-1.201937 1.196127,-1.261887 1.090458,-1.31702 0.980381,-1.366909 0.866483,-1.411376 0.749151,-1.450254 0.628903,-1.483541 0.506063,-1.510806 0.381346,-1.532224 0.255073,-1.547534 0.127763,-1.556737 0.016,-0.795184 z"
       stroke="#ff0000"
       stroke-width="0.7465"
       style="fill:#ffffff;stroke-width:6.17739;stroke-dasharray:none"
       profondeur="11.42814905787013"
       id="path10233" />
    <text
       xml:space="preserve"
       style="font-size:108.202px;white-space:pre;inline-size:22.5878;display:inline;fill:#5e5eff;stroke-width:9.01683"
       x="-42.80415"
       y="310.17529"
       id="text13306"
       transform="scale(1.0595185,0.94382496)"><tspan
         x="-42.80415"
         y="310.17529"
         id="tspan29425">M</tspan></text>
    <text
       xml:space="preserve"
       transform="matrix(1.4302328,0,0,1.8677886,-1295.1555,-1613.2756)"
       id="text13358"
       style="white-space:pre;shape-inside:url(#rect13360);display:inline;fill:#5e5eff" />
    <path
       style="opacity:0.36;fill:#645eff;fill-opacity:1;stroke-width:1.63443"
       id="path13416"
       sodipodi:type="arc"
       sodipodi:cx="3.1208653"
       sodipodi:cy="259.91095"
       sodipodi:rx="31.063961"
       sodipodi:ry="40.567463"
       sodipodi:start="0"
       sodipodi:end="0.00022351881"
       sodipodi:arc-type="slice"
       d="m 34.184826,259.91095 a 31.063961,40.567463 0 0 1 0,0.009 l -31.0639607,-0.009 z" />
    <text
       xml:space="preserve"
       style="font-size:50.1393px;fill:#ff6d5e;fill-opacity:1;stroke-width:4.17827"
       x="-638.26868"
       y="-418.8562"
       id="text13306-4"
       transform="scale(1.1265369,0.8876762)"><tspan
         sodipodi:role="line"
         id="tspan13304-6"
         style="fill:#ff6d5e;fill-opacity:1;stroke-width:4.17827"
         x="-638.26868"
         y="-418.8562" /></text>
    <text
       xml:space="preserve"
       style="font-size:19.6132px;opacity:1;fill:#ffffff;fill-opacity:0;stroke:#ff00db;stroke-width:1.63443;stroke-opacity:1"
       x="-1047.5742"
       y="-392.46603"
       id="text22323"
       transform="scale(0.87506336,1.1427744)"><tspan
         sodipodi:role="line"
         id="tspan22321"
         style="stroke:#ff00db;stroke-width:1.63443;stroke-opacity:1"
         x="-1047.5742"
         y="-392.46603" /></text>
  </g>
  <g
     credits="Auteur : Raphaël ALLAIS - Éduscol-STI"
     id="g11068"
     transform="translate(0.25799842,0.77399526)">
    <path
       d="m 88.3883,-51.031 26.9845,-33.4103"
       stroke="#0000ff"
       stroke-width="1"
       style="stroke-linecap:round"
       profondeur="-86.60254037844388"
       id="path11038" />
    <path
       d="M 64.8181,-37.4228 91.8026,-70.8331"
       stroke="#0000ff"
       stroke-width="1"
       style="stroke-linecap:round"
       profondeur="-86.60254037844388"
       id="path11044" />
    <path
       d="M 64.8181,-64.6393 91.8026,-98.0496"
       stroke="#0000ff"
       stroke-width="1"
       style="stroke-linecap:round"
       profondeur="-86.60254037844388"
       id="path11046" />
    <path
       d="M 41.2479,-23.8145 68.2324,-57.2248"
       stroke="#0000ff"
       stroke-width="1"
       style="stroke-linecap:round"
       profondeur="-86.60254037844388"
       id="path11050" />
    <path
       d="M 41.2479,-51.031 68.2324,-84.4413"
       stroke="#0000ff"
       stroke-width="1"
       style="stroke-linecap:round"
       profondeur="-86.60254037844388"
       id="path11052" />
    <path
       d="m 41.2479,-78.2476 26.9845,-33.4103"
       stroke="#0000ff"
       stroke-width="1"
       style="stroke-linecap:round"
       profondeur="-86.60254037844388"
       id="path11054" />
    <path
       d="M 17.6777,-10.2062 44.6621,-43.6165"
       stroke="#0000ff"
       stroke-width="1"
       style="stroke-linecap:round"
       profondeur="-86.60254037844388"
       id="path11056" />
    <path
       d="M 17.6777,-37.4228 44.6621,-70.8331"
       stroke="#0000ff"
       stroke-width="1"
       style="stroke-linecap:round"
       profondeur="-86.60254037844388"
       id="path11058" />
    <path
       d="M 17.6777,-64.6393 44.6621,-98.0496"
       stroke="#0000ff"
       stroke-width="1"
       style="stroke-linecap:round"
       profondeur="-86.60254037844388"
       id="path11060" />
    <path
       d="m 17.6777,-91.8559 26.9844,-33.4103"
       stroke="#0000ff"
       stroke-width="1"
       style="stroke-linecap:round"
       profondeur="-86.60254037844388"
       id="path11062" />
    <path
       d="m 146.6847,174.40227 14.05543,9.17327 V 201.922"
       stroke="#0000ff"
       stroke-width="0.210127"
       fill="#ffffff"
       profondeur="-43.30127018922194"
       style="fill:#ffffff;fill-opacity:0;stroke:#f200ff;stroke-width:1.00577;stroke-linejoin:round;stroke-dasharray:none;stroke-opacity:1"
       id="path11064"
       sodipodi:nodetypes="ccc" />
    <path
       d="M 0,0 53.033,-30.6186"
       stroke="#0000ff"
       stroke-width="1"
       style="stroke-linecap:round"
       profondeur="-21.65063509461097"
       id="path11066" />
  </g>
  <g
     credits="Auteur : Raphaël ALLAIS - Éduscol-STI"
     id="g11948"
     transform="matrix(1.3405863,0,0,1.3799346,255.03835,53.373209)">
    <path
       d="m -90.477358,69.40726 -2.625982,1.419333 -4.057521,2.193073 -5.007149,2.706341 -11.60516,6.272544"
       stroke="#0000ff"
       stroke-width="0.41009"
       style="stroke:#ff9200;stroke-width:1;stroke-linecap:round;stroke-dasharray:none;stroke-opacity:1"
       profondeur="-86.60254037844388"
       id="path11938"
       sodipodi:nodetypes="ccccc" />
    <path
       style="opacity:1;fill:#ff284c;fill-opacity:0.0278885;stroke:#ff9800;stroke-width:0.989028;stroke-dasharray:none;stroke-opacity:1"
       id="path19204"
       transform="matrix(0.87960138,-0.47571147,0.55587333,0.83126701,0,0)"
       sodipodi:type="arc"
       sodipodi:cx="-127.13108"
       sodipodi:cy="18.216024"
       sodipodi:rx="13.245441"
       sodipodi:ry="11.665925"
       sodipodi:start="6.2590925"
       sodipodi:end="3.1314981"
       sodipodi:open="true"
       sodipodi:arc-type="arc"
       d="m -113.88948,17.934987 a 13.245441,11.665925 0 0 1 -6.3973,10.26881 13.245441,11.665925 0 0 1 -13.29699,0.200209 13.245441,11.665925 0 0 1 -6.79208,-10.070221" />
    <path
       style="opacity:1;fill:#ffffff;fill-opacity:0;stroke:#020002;stroke-width:0.595356;stroke-dasharray:none;stroke-opacity:1"
       id="path25257"
       sodipodi:type="arc"
       sodipodi:cx="-106.26268"
       sodipodi:cy="82.428009"
       sodipodi:rx="2.9327383"
       sodipodi:ry="2.8277369"
       sodipodi:start="6.2590925"
       sodipodi:end="6.2457645"
       sodipodi:open="true"
       sodipodi:arc-type="arc"
       d="m -103.33079,82.359888 a 2.9327383,2.8277369 0 0 1 -2.85147,2.894795 2.9327383,2.8277369 0 0 1 -3.01177,-2.739716 2.9327383,2.8277369 0 0 1 2.8314,-2.913052 2.9327383,2.8277369 0 0 1 3.03064,2.720303" />
    <text
       xml:space="preserve"
       style="font-size:2.33436px;opacity:1;fill:#ffffff;fill-opacity:0;stroke:#020002;stroke-width:0.735231;stroke-dasharray:none;stroke-opacity:1"
       x="-105.61401"
       y="84.529968"
       id="text25261"
       transform="scale(1.0145696,0.98563961)"><tspan
         sodipodi:role="line"
         id="tspan25259"
         style="stroke-width:0.73523"
         x="-105.61401"
         y="84.529968">C</tspan></text>
  </g>
  <g
     credits="Auteur : Raphaël ALLAIS - Éduscol-STI"
     id="g12140"
     transform="matrix(0.26159397,0.00620115,-0.00701307,0.29584438,103.99611,231.42601)"
     style="stroke-width:3.59362;stroke-dasharray:none">
    <path
       d="M 312.91096,-17.094297 C 296.86267,-6.9164636 275.75658,2.9641214 254.4665,15.656814"
       stroke="#0000ff"
       stroke-width="1"
       style="stroke:#ff0000;stroke-width:3.59362;stroke-linecap:round;stroke-dasharray:none;stroke-opacity:1"
       profondeur="-21.65063509461097"
       id="path12138-9"
       sodipodi:nodetypes="cc" />
  </g>
  <g
     credits="Auteur : Raphaël ALLAIS - Éduscol-STI"
     id="g12140-8"
     transform="matrix(0.26159397,0.00620115,-0.00701307,0.29584438,195.7837,227.95344)"
     style="stroke-width:3.59362;stroke-dasharray:none">
    <path
       d="M 312.91096,-17.094297 C 296.86267,-6.9164636 275.75658,2.9641214 254.4665,15.656814"
       stroke="#0000ff"
       stroke-width="1"
       style="stroke:#ff0000;stroke-width:3.59362;stroke-linecap:round;stroke-dasharray:none;stroke-opacity:1"
       profondeur="-21.65063509461097"
       id="path12138-9-9"
       sodipodi:nodetypes="cc" />
  </g>
  <ellipse
     style="opacity:1;fill:#f5f5ff;fill-opacity:0.0278885;stroke:#0039ff;stroke-width:1;stroke-dasharray:none;stroke-opacity:1"
     id="path15181"
     cx="184.92798"
     cy="202.21925"
     rx="77.224106"
     ry="9.3984051" />
  <ellipse
     style="opacity:0;fill:#f5f5ff;fill-opacity:0.0278885;stroke:#ff001e;stroke-width:0.264583;stroke-opacity:1"
     id="path15443"
     cx="78.560524"
     cy="93.653419"
     rx="19.994877"
     ry="14.70591" />
  <ellipse
     style="opacity:1;fill:#ff284c;fill-opacity:0.0278885;stroke:#00ff1a;stroke-width:1.00037;stroke-dasharray:none;stroke-opacity:1"
     id="path15502"
     cx="252.0611"
     cy="223.22661"
     rx="15.474889"
     ry="6.3688211"
     transform="matrix(0.99661091,-0.08225987,0.12076803,0.99268076,0,0)" />
  <g
     credits="Auteur : Raphaël ALLAIS - Éduscol-STI"
     id="g17322"
     transform="matrix(0.08682366,0,0,0.08795841,135.3521,168.42408)">
    <g
       id="g17308" />
    <path
       d="m -141.4214,-40.8248 70.7107,-40.8249"
       stroke="#0000ff"
       stroke-width="1"
       style="stroke-linecap:round;stroke:#fe00ff;stroke-opacity:1;stroke-width:11.44306251;stroke-dasharray:none"
       profondeur="-86.60254037844388"
       id="path17310" />
    <path
       d="m -45.726,-84.1349 0.7883,0.4835 1.4688,1.0758 1.3613,1.2405 1.2484,1.4005 1.1306,1.5547 1.0084,1.703 0.8821,1.8445 0.7523,1.9786 0.6197,2.1051 0.4845,2.2232 0.3475,2.3325 0.209,2.4326 0.0698,2.5232 -0.0698,2.6036 -0.209,2.674 -0.3475,2.7337 -0.4845,2.7827 -0.6197,2.8206 -0.7523,2.8474 -0.8821,2.863 -1.0084,2.8673 -1.1306,2.8603 -1.2484,2.842 -1.3613,2.8125 -1.4688,2.7718 -1.5706,2.7202 -1.666,2.658 -1.755,2.5851 -1.837,2.5022 -1.9118,2.4093 -1.979,2.3069 -2.0384,2.1954 -2.0898,2.0753 -2.1329,1.947 -2.1675,1.8109 -2.1938,1.6677 -2.2112,1.518 -2.22,1.3623 -2.22,1.2011 -2.2112,1.0353 -2.1937,0.8654 -2.1676,0.692 -2.1329,0.5159 -2.0897,0.3377 -2.0384,0.1584 -1.979,-0.0218 -1.9118,-0.2018 -1.837,-0.3809 -1.755,-0.5587 -1.6661,-0.7342 -0.7822,-0.4231 141.4213,81.6496 0.7823,0.4232 1.666,0.7342 1.755,0.5586 1.837,0.381 1.9118,0.2018 1.979,0.0217 2.0384,-0.1583 2.0898,-0.3378 2.1329,-0.5159 2.1675,-0.692 2.1938,-0.8653 2.2112,-1.0353 2.22,-1.2011 2.22,-1.3623 2.2112,-1.518 2.1937,-1.6678 2.1676,-1.8109 2.1329,-1.9469 2.0897,-2.0753 2.0384,-2.1954 1.979,-2.307 1.9118,-2.4092 1.837,-2.5022 1.755,-2.5852 1.6661,-2.6579 1.5705,-2.7203 1.4688,-2.7718 1.3613,-2.8124 1.2485,-2.842 1.1306,-2.8603 1.0083,-2.8673 0.8821,-2.863 0.7524,-2.8475 0.6197,-2.8206 0.4845,-2.7826 0.3474,-2.7337 0.2091,-2.674 0.0697,-2.6037 -0.0697,-2.5231 -0.2091,-2.4326 -0.3474,-2.3325 -0.4845,-2.2232 -0.6197,-2.1051 -0.7524,-1.9787 -0.8821,-1.8444 -1.0083,-1.703 -1.1306,-1.5548 -1.2485,-1.4004 -1.3613,-1.2405 -1.4688,-1.0758 -0.7883,-0.4836 z"
       stroke="#ff0000"
       stroke-width="1"
       style="fill:#ffffff;stroke-width:11.44306251;stroke-dasharray:none"
       profondeur="-11.428149057870101"
       id="path17312" />
    <path
       d="M -141.4214,-81.6497 80.907648,46.712062 91.481389,52.816815 141.4214,81.6497"
       stroke="#0000ff"
       stroke-width="1"
       style="stroke-linecap:round;stroke:#f800ff;stroke-opacity:1;stroke-width:11.44306251;stroke-dasharray:none"
       profondeur="0.0"
       id="path17314"
       sodipodi:nodetypes="cccc" />
    <path
       d="M 58.9256,74.8455 129.6362,34.0207"
       stroke="#0000ff"
       stroke-width="1"
       style="stroke-linecap:round;stroke-width:11.44306251;stroke-dasharray:none;stroke:#f200ff;stroke-opacity:1"
       profondeur="0.0"
       id="path17316" />
    <path
       d="m -95.6953,2.4853 -0.7883,-0.4836 -1.4688,-1.0758 -1.3613,-1.2405 -1.2485,-1.4004 -1.1306,-1.5548 -1.0083,-1.703 -0.8821,-1.8444 -0.7524,-1.9787 -0.6197,-2.1051 -0.4845,-2.2232 -0.3474,-2.3325 -0.2091,-2.4326 -0.0697,-2.5231 v 0 l 0.0697,-2.6037 0.2091,-2.674 0.3474,-2.7337 0.4845,-2.7826 0.6197,-2.8206 0.7524,-2.8475 0.8821,-2.863 1.0083,-2.8673 1.1306,-2.8603 1.2485,-2.842 1.3613,-2.8124 1.4688,-2.7718 1.5705,-2.7203 1.6661,-2.6579 1.755,-2.5852 1.837,-2.5022 1.9118,-2.4092 1.979,-2.307 2.0384,-2.1954 2.0897,-2.0753 2.1329,-1.9469 2.1676,-1.8109 2.1937,-1.6678 2.2112,-1.518 2.22,-1.3623 2.22,-1.2011 2.2112,-1.0353 2.1938,-0.8653 2.1675,-0.692 2.1329,-0.5159 2.0898,-0.3378 2.0384,-0.1583 1.979,0.0217 1.9118,0.2018 1.837,0.381 1.755,0.5586 1.666,0.7342 0.7823,0.4232 80.15038,46.274829 L 95.6953,-2.4853 94.9131,-2.9084 93.247,-3.6426 91.492,-4.2013 89.655,-4.5822 87.7432,-4.784 l -1.979,-0.0218 -2.0384,0.1584 -2.0897,0.3377 -2.1329,0.5159 -2.1676,0.692 -2.1937,0.8654 -2.2112,1.0353 -2.22,1.2011 -2.22,1.3623 -2.2112,1.518 -2.1938,1.6677 -2.1675,1.8109 -2.1329,1.947 -2.0898,2.0753 -2.0384,2.1954 -1.979,2.3069 -1.9118,2.4093 -1.837,2.5022 -1.755,2.5851 -1.666,2.658 -1.5706,2.7202 -1.4688,2.7718 -1.3613,2.8125 -1.2484,2.842 -1.1306,2.8603 -1.0084,2.8673 -0.8821,2.863 -0.7523,2.8474 -0.6197,2.8206 -0.4845,2.7827 -0.3475,2.7337 -0.209,2.674 -0.0698,2.6036 v 0 l 0.0698,2.5232 0.209,2.4326 0.3475,2.3325 0.4845,2.2232 0.6197,2.1051 0.7523,1.9786 0.8821,1.8445 1.0084,1.703 1.1306,1.5547 1.2484,1.4005 1.3613,1.2405 1.4688,1.0758 0.7883,0.4835 z"
       stroke="#ff0000"
       stroke-width="1"
       style="fill:#ffffff;stroke-width:11.44306251;stroke-dasharray:none"
       profondeur="11.428149057870122"
       id="path17318"
       sodipodi:nodetypes="cccccccccccccccccccccccccccccccccccccccccccccccccccccccccccccccccccccccccccccccccccccccccccccccccccccccccccc" />
  </g>
  <g
     credits="Auteur : Raphaël ALLAIS - Éduscol-STI"
     id="g25896"
     transform="matrix(0.16374646,0,0,0.15608592,169.98987,237.66463)"
     style="stroke-width:6.25507002;stroke-dasharray:none">
    <path
       d="m -70.7107,61.2372 15.442,40.0744"
       stroke="#0000ff"
       stroke-width="1"
       style="stroke:#ff0600;stroke-width:6.25507002;stroke-linecap:round;stroke-dasharray:none;stroke-opacity:1"
       profondeur="-86.60254037844388"
       id="path25860" />
    <path
       d="m -47.1405,74.8455 15.442,40.0744"
       stroke="#0000ff"
       stroke-width="1"
       style="stroke:#ff0600;stroke-width:6.25507002;stroke-linecap:round;stroke-dasharray:none;stroke-opacity:1"
       profondeur="-86.60254037844388"
       id="path25862" />
    <path
       d="m -23.5702,88.4538 15.4419,40.0744"
       stroke="#0000ff"
       stroke-width="1"
       style="stroke:#ff0600;stroke-width:6.25507002;stroke-linecap:round;stroke-dasharray:none;stroke-opacity:1"
       profondeur="-86.60254037844388"
       id="path25864" />
    <path
       d="m 0,102.0621 15.4419,40.0744"
       stroke="#0000ff"
       stroke-width="1"
       style="stroke:#ff0600;stroke-width:6.25507002;stroke-linecap:round;stroke-dasharray:none;stroke-opacity:1"
       profondeur="-86.60254037844388"
       id="path25866" />
    <path
       d="m -47.1405,47.629 15.442,40.0743"
       stroke="#0000ff"
       stroke-width="1"
       style="stroke:#ff0600;stroke-width:6.25507002;stroke-linecap:round;stroke-dasharray:none;stroke-opacity:1"
       profondeur="-86.60254037844388"
       id="path25868" />
    <path
       d="m -23.5702,61.2372 15.4419,40.0744"
       stroke="#0000ff"
       stroke-width="1"
       style="stroke:#ff0600;stroke-width:6.25507002;stroke-linecap:round;stroke-dasharray:none;stroke-opacity:1"
       profondeur="-86.60254037844388"
       id="path25870" />
    <path
       d="m 0,74.8455 15.4419,40.0744"
       stroke="#0000ff"
       stroke-width="1"
       style="stroke:#ff0600;stroke-width:6.25507002;stroke-linecap:round;stroke-dasharray:none;stroke-opacity:1"
       profondeur="-86.60254037844388"
       id="path25872" />
    <path
       d="m 23.5702,88.4538 15.442,40.0744"
       stroke="#0000ff"
       stroke-width="1"
       style="stroke:#ff0600;stroke-width:6.25507002;stroke-linecap:round;stroke-dasharray:none;stroke-opacity:1"
       profondeur="-86.60254037844388"
       id="path25874" />
    <path
       d="M -23.5702,34.0207 -8.1283,74.0951"
       stroke="#0000ff"
       stroke-width="1"
       style="stroke:#ff0600;stroke-width:6.25507002;stroke-linecap:round;stroke-dasharray:none;stroke-opacity:1"
       profondeur="-86.60254037844388"
       id="path25876" />
    <path
       d="M 0,47.629 15.4419,87.7033"
       stroke="#0000ff"
       stroke-width="1"
       style="stroke:#ff0600;stroke-width:6.25507002;stroke-linecap:round;stroke-dasharray:none;stroke-opacity:1"
       profondeur="-86.60254037844388"
       id="path25878" />
    <path
       d="m 23.5702,61.2372 15.442,40.0744"
       stroke="#0000ff"
       stroke-width="1"
       style="stroke:#ff0600;stroke-width:6.25507002;stroke-linecap:round;stroke-dasharray:none;stroke-opacity:1"
       profondeur="-86.60254037844388"
       id="path25880" />
    <path
       d="m 47.1405,74.8455 15.4419,40.0744"
       stroke="#0000ff"
       stroke-width="1"
       style="stroke:#ff0600;stroke-width:6.25507002;stroke-linecap:round;stroke-dasharray:none;stroke-opacity:1"
       profondeur="-86.60254037844388"
       id="path25882" />
    <path
       d="M 0,20.4124 15.4419,60.4868"
       stroke="#0000ff"
       stroke-width="1"
       style="stroke:#ff0600;stroke-width:6.25507002;stroke-linecap:round;stroke-dasharray:none;stroke-opacity:1"
       profondeur="-86.60254037844388"
       id="path25884" />
    <path
       d="m 23.5702,34.0207 15.442,40.0744"
       stroke="#0000ff"
       stroke-width="1"
       style="stroke:#ff0600;stroke-width:6.25507002;stroke-linecap:round;stroke-dasharray:none;stroke-opacity:1"
       profondeur="-86.60254037844388"
       id="path25886" />
    <path
       d="M 47.1405,47.629 62.5824,87.7033"
       stroke="#0000ff"
       stroke-width="1"
       style="stroke:#ff0600;stroke-width:6.25507002;stroke-linecap:round;stroke-dasharray:none;stroke-opacity:1"
       profondeur="-86.60254037844388"
       id="path25888" />
    <path
       d="m 70.7107,61.2372 15.4419,40.0744"
       stroke="#0000ff"
       stroke-width="1"
       style="stroke:#ff0600;stroke-width:6.25507002;stroke-linecap:round;stroke-dasharray:none;stroke-opacity:1"
       profondeur="-86.60254037844388"
       id="path25890" />
    <path
       d="M 70.7107,61.2372 0,102.0621 -70.7107,61.2372 0,20.4124 Z"
       stroke="#0000ff"
       stroke-width="1"
       fill="#ffffff"
       profondeur="-43.30127018922194"
       style="stroke:#ff0600;stroke-width:6.25507002;stroke-linejoin:round;stroke-dasharray:none;stroke-opacity:1"
       id="path25892" />
    <path
       d="M 0,0 V 61.2372"
       stroke="#0000ff"
       stroke-width="1"
       style="stroke:#ff0600;stroke-width:6.25507002;stroke-linecap:round;stroke-dasharray:none;stroke-opacity:1"
       profondeur="-21.65063509461097"
       id="path25894" />
  </g>
  <g
     credits="Auteur : Raphaël ALLAIS - Éduscol-STI"
     id="g25896-9"
     transform="matrix(0.15197118,0,0,0.15055553,262.35028,234.39825)"
     style="stroke-width:6.6110589;stroke-dasharray:none">
    <path
       d="m -70.7107,61.2372 15.442,40.0744"
       stroke="#0000ff"
       stroke-width="1"
       style="stroke:#ff0600;stroke-width:6.6110589;stroke-linecap:round;stroke-dasharray:none;stroke-opacity:1"
       profondeur="-86.60254037844388"
       id="path25860-0" />
    <path
       d="m -47.1405,74.8455 15.442,40.0744"
       stroke="#0000ff"
       stroke-width="1"
       style="stroke:#ff0600;stroke-width:6.6110589;stroke-linecap:round;stroke-dasharray:none;stroke-opacity:1"
       profondeur="-86.60254037844388"
       id="path25862-7" />
    <path
       d="m -23.5702,88.4538 15.4419,40.0744"
       stroke="#0000ff"
       stroke-width="1"
       style="stroke:#ff0600;stroke-width:6.6110589;stroke-linecap:round;stroke-dasharray:none;stroke-opacity:1"
       profondeur="-86.60254037844388"
       id="path25864-8" />
    <path
       d="m 0,102.0621 15.4419,40.0744"
       stroke="#0000ff"
       stroke-width="1"
       style="stroke:#ff0600;stroke-width:6.6110589;stroke-linecap:round;stroke-dasharray:none;stroke-opacity:1"
       profondeur="-86.60254037844388"
       id="path25866-0" />
    <path
       d="m -47.1405,47.629 15.442,40.0743"
       stroke="#0000ff"
       stroke-width="1"
       style="stroke:#ff0600;stroke-width:6.6110589;stroke-linecap:round;stroke-dasharray:none;stroke-opacity:1"
       profondeur="-86.60254037844388"
       id="path25868-2" />
    <path
       d="m -23.5702,61.2372 15.4419,40.0744"
       stroke="#0000ff"
       stroke-width="1"
       style="stroke:#ff0600;stroke-width:6.6110589;stroke-linecap:round;stroke-dasharray:none;stroke-opacity:1"
       profondeur="-86.60254037844388"
       id="path25870-8" />
    <path
       d="m 0,74.8455 15.4419,40.0744"
       stroke="#0000ff"
       stroke-width="1"
       style="stroke:#ff0600;stroke-width:6.6110589;stroke-linecap:round;stroke-dasharray:none;stroke-opacity:1"
       profondeur="-86.60254037844388"
       id="path25872-3" />
    <path
       d="m 23.5702,88.4538 15.442,40.0744"
       stroke="#0000ff"
       stroke-width="1"
       style="stroke:#ff0600;stroke-width:6.6110589;stroke-linecap:round;stroke-dasharray:none;stroke-opacity:1"
       profondeur="-86.60254037844388"
       id="path25874-8" />
    <path
       d="M -23.5702,34.0207 -8.1283,74.0951"
       stroke="#0000ff"
       stroke-width="1"
       style="stroke:#ff0600;stroke-width:6.6110589;stroke-linecap:round;stroke-dasharray:none;stroke-opacity:1"
       profondeur="-86.60254037844388"
       id="path25876-0" />
    <path
       d="M 0,47.629 15.4419,87.7033"
       stroke="#0000ff"
       stroke-width="1"
       style="stroke:#ff0600;stroke-width:6.6110589;stroke-linecap:round;stroke-dasharray:none;stroke-opacity:1"
       profondeur="-86.60254037844388"
       id="path25878-9" />
    <path
       d="m 23.5702,61.2372 15.442,40.0744"
       stroke="#0000ff"
       stroke-width="1"
       style="stroke:#ff0600;stroke-width:6.6110589;stroke-linecap:round;stroke-dasharray:none;stroke-opacity:1"
       profondeur="-86.60254037844388"
       id="path25880-0" />
    <path
       d="m 47.1405,74.8455 15.4419,40.0744"
       stroke="#0000ff"
       stroke-width="1"
       style="stroke:#ff0600;stroke-width:6.6110589;stroke-linecap:round;stroke-dasharray:none;stroke-opacity:1"
       profondeur="-86.60254037844388"
       id="path25882-2" />
    <path
       d="M 0,20.4124 15.4419,60.4868"
       stroke="#0000ff"
       stroke-width="1"
       style="stroke:#ff0600;stroke-width:6.6110589;stroke-linecap:round;stroke-dasharray:none;stroke-opacity:1"
       profondeur="-86.60254037844388"
       id="path25884-4" />
    <path
       d="m 23.5702,34.0207 15.442,40.0744"
       stroke="#0000ff"
       stroke-width="1"
       style="stroke:#ff0600;stroke-width:6.6110589;stroke-linecap:round;stroke-dasharray:none;stroke-opacity:1"
       profondeur="-86.60254037844388"
       id="path25886-3" />
    <path
       d="M 47.1405,47.629 62.5824,87.7033"
       stroke="#0000ff"
       stroke-width="1"
       style="stroke:#ff0600;stroke-width:6.6110589;stroke-linecap:round;stroke-dasharray:none;stroke-opacity:1"
       profondeur="-86.60254037844388"
       id="path25888-0" />
    <path
       d="m 70.7107,61.2372 15.4419,40.0744"
       stroke="#0000ff"
       stroke-width="1"
       style="stroke:#ff0600;stroke-width:6.6110589;stroke-linecap:round;stroke-dasharray:none;stroke-opacity:1"
       profondeur="-86.60254037844388"
       id="path25890-7" />
    <path
       d="M 70.7107,61.2372 0,102.0621 -70.7107,61.2372 0,20.4124 Z"
       stroke="#0000ff"
       stroke-width="1"
       fill="#ffffff"
       profondeur="-43.30127018922194"
       style="stroke:#ff0600;stroke-width:6.6110589;stroke-linejoin:round;stroke-dasharray:none;stroke-opacity:1"
       id="path25892-3" />
    <path
       d="M 0,0 V 61.2372"
       stroke="#0000ff"
       stroke-width="1"
       style="stroke:#ff0600;stroke-width:6.6110589;stroke-linecap:round;stroke-dasharray:none;stroke-opacity:1"
       profondeur="-21.65063509461097"
       id="path25894-8" />
  </g>
</svg>
